#!OML:ASF F:\VICON\USERDATA\INSTALL\Justin_Nancy\Justin_Nancy.ASF
:FULLY-SPECIFIED
:DEGREES
182
root 0.85445 17.3743 -26.9377 8.31967 -2.74687 -1.24966
lowerback 7.51802 3.13744 0.35634
upperback 1.11566 4.21112 0.41348
thorax -3.0581 2.08927 -0.194467
lowerneck -16.3789 -5.47584 -9.20971
upperneck 15.2601 -6.78856 8.26987
head 8.02201 -2.98581 3.45103
rclavicle -1.95803e-014 -2.5842e-015
rhumerus -33.1096 -11.5462 -82.8661
rradius 33.6009
rwrist 5.59098
rhand -15.0079 9.34799
rfingers 7.12502
rthumb 11.1571 -20.3354
lclavicle -1.95803e-014 -2.5842e-015
lhumerus -41.1774 22.683 71.128
lradius 21.0145
lwrist -17.4279
lhand -10.5534 27.0754
lfingers 7.12502
lthumb 15.4506 56.4779
rfemur 9.76157 4.74142 23.8756
rtibia 27.465
rfoot 4.82748 -3.73212
rtoes -5.90832
lfemur -35.4668 -2.57117 -16.8078
ltibia 29.6743
lfoot -2.96841 -3.39785
ltoes -1.55543
183
root 0.873366 17.4034 -26.7821 8.43407 -2.90409 -1.08809
lowerback 7.38257 3.10592 -0.0442033
upperback 0.999528 4.13903 0.4428
thorax -3.13351 2.05806 0.068914
lowerneck -16.3547 -5.37467 -9.23452
upperneck 15.362 -6.63956 8.20792
head 8.03609 -2.92286 3.45466
rclavicle -1.97791e-014 -3.97569e-016
rhumerus -33.2734 -10.988 -82.9305
rradius 33.74
rwrist 5.58023
rhand -14.9819 9.95794
rfingers 7.12502
rthumb 11.1822 -19.7241
lclavicle -1.97791e-014 -3.97569e-016
lhumerus -41.2547 22.568 71.3229
lradius 21.0739
lwrist -17.197
lhand -10.4784 26.5297
lfingers 7.12502
lthumb 15.5229 55.9267
rfemur 8.08208 4.91031 23.5474
rtibia 30.4139
rfoot 6.98716 -3.34402
rtoes -2.36398
lfemur -34.9962 -2.3379 -17.1862
ltibia 29.7002
lfoot -3.23075 -3.53509
ltoes -0.294658
184
root 0.893966 17.4311 -26.6248 8.46215 -3.18835 -0.864896
lowerback 7.2188 3.12643 -0.493261
upperback 0.917156 4.13143 0.430048
thorax -3.15816 2.05993 0.312512
lowerneck -16.065 -5.2488 -9.18567
upperneck 15.2017 -6.48774 8.17644
head 7.91491 -2.85868 3.45891
rclavicle -3.50358e-014 4.17448e-015
rhumerus -33.3819 -10.5887 -82.9487
rradius 33.8265
rwrist 5.76405
rhand -15.1241 9.74469
rfingers 7.12502
rthumb 11.0451 -19.9447
lclavicle -3.50358e-014 4.17448e-015
lhumerus -41.2457 22.7704 71.2361
lradius 20.8681
lwrist -17.5064
lhand -10.7063 23.6168
lfingers 7.12502
lthumb 15.3034 53.0306
rfemur 6.49257 5.05111 23.0934
rtibia 33.4556
rfoot 8.43361 -3.01849
rtoes -0.390481
lfemur -34.3547 -1.88859 -17.695
ltibia 29.6645
lfoot -3.48259 -3.67542
ltoes 0.280114
185
root 0.923563 17.4492 -26.4678 8.34861 -3.32204 -0.528524
lowerback 7.33207 3.10719 -0.86635
upperback 0.795803 4.0731 0.348229
thorax -3.36623 2.03545 0.430553
lowerneck -15.8512 -5.32866 -9.14803
upperneck 15.154 -6.60958 8.10909
head 7.86931 -2.92592 3.41732
rclavicle 2.44505e-014 1.98785e-015
rhumerus -33.7177 -10.2901 -82.9148
rradius 34.099
rwrist 5.97456
rhand -15.0996 9.39551
rfingers 7.12502
rthumb 11.0687 -20.2926
lclavicle 2.44505e-014 1.98785e-015
lhumerus -41.2753 22.7179 71.177
lradius 20.6092
lwrist -17.8761
lhand -11.0398 19.2626
lfingers 7.12502
lthumb 14.9822 48.7007
rfemur 5.08387 4.94551 22.5087
rtibia 36.5111
rfoot 9.76676 -2.45621
rtoes 1.19858
lfemur -33.5405 -1.90395 -18.2524
ltibia 29.4905
lfoot -3.81244 -3.50254
ltoes -0.132023
186
root 0.950199 17.4738 -26.3139 8.09852 -3.30814 -0.284743
lowerback 7.66664 3.03671 -1.10559
upperback 0.710037 3.95341 0.27968
thorax -3.65119 1.97912 0.483556
lowerneck -15.8089 -5.40789 -9.04248
upperneck 15.2438 -6.74023 8.04117
head 7.89745 -2.98878 3.36169
rclavicle -2.13694e-014 -6.36111e-015
rhumerus -33.8768 -10.1654 -82.9425
rradius 33.9905
rwrist 5.55029
rhand -15.398 10.7755
rfingers 7.12502
rthumb 10.7809 -18.9278
lclavicle -2.13694e-014 -6.36111e-015
lhumerus -41.2901 22.1193 71.4409
lradius 20.7847
lwrist -17.4812
lhand -10.8352 23.6402
lfingers 7.12502
lthumb 15.1792 53.0634
rfemur 3.72174 4.82538 22.1188
rtibia 39.5125
rfoot 11.6404 -2.22842
rtoes 4.65286
lfemur -32.5474 -2.02807 -18.6829
ltibia 29.2786
lfoot -4.19943 -3.52071
ltoes 0.399889
